<svg width="514" height="371" viewBox="0 0 514 371" fill="none" xmlns="http://www.w3.org/2000/svg">
<path d="M328.627 367.572C288.666 376.953 278.082 324.522 239.381 324.887C188.746 325.366 132.88 379.012 86.3043 369.861C39.0315 360.572 15.0708 319.317 5.33671 278.9C-5.19143 235.187 -1.37612 183.319 30.2942 137.303C61.5921 91.8274 117.527 57.7236 172.889 35.4498C221.945 15.7133 269.241 26.3509 319.015 21.1432C367.134 16.1086 422.349 -10.6794 460.611 5.34619C498.938 21.3993 512.882 62.7365 513.039 102.409C513.178 137.497 481.808 172.59 461.412 208.004C445.829 235.063 428.683 260.123 407.66 285.387C383.296 314.666 366.749 358.624 328.627 367.572Z" fill="#484C9A"/>
</svg>
